<svg width="16" height="16" viewBox="0 0 16 16" fill="none" xmlns="http://www.w3.org/2000/svg">
<path d="M7.898 4.007L8 4C8.18124 4.00001 8.35634 4.06564 8.49293 4.18477C8.62952 4.30389 8.71835 4.46845 8.743 4.648L8.75 4.75V7.249L11.25 7.25C11.4312 7.25001 11.6063 7.31564 11.7429 7.43477C11.8795 7.55389 11.9684 7.71845 11.993 7.898L12 8C12 8.18124 11.9344 8.35634 11.8152 8.49293C11.6961 8.62952 11.5316 8.71835 11.352 8.743L11.25 8.75L8.75 8.749V11.25C8.74999 11.4312 8.68436 11.6063 8.56523 11.7429C8.44611 11.8795 8.28155 11.9684 8.102 11.993L8 12C7.81876 12 7.64366 11.9344 7.50707 11.8152C7.37048 11.6961 7.28165 11.5316 7.257 11.352L7.25 11.25V8.749L4.75 8.75C4.56876 8.74999 4.39366 8.68436 4.25707 8.56523C4.12048 8.44611 4.03165 8.28155 4.007 8.102L4 8C4.00001 7.81876 4.06564 7.64366 4.18477 7.50707C4.30389 7.37048 4.46845 7.28165 4.648 7.257L4.75 7.25L7.25 7.249V4.75C7.25001 4.56876 7.31564 4.39366 7.43477 4.25707C7.55389 4.12048 7.71845 4.03165 7.898 4.007L8 4L7.898 4.007Z" fill="white"/>
</svg>
