<svg width="72" height="24" viewBox="0 0 72 24" fill="none" xmlns="http://www.w3.org/2000/svg">
<rect width="72" height="24" rx="4" fill="#CCE4FF"/>
<g clip-path="url(#clip0_1_407)">
<path d="M21.1893 4.39841C21.9073 4.39836 22.598 4.65583 23.1198 5.11799C23.6416 5.58014 23.955 6.21196 23.9957 6.88382L24 7.03297V16.7638C24 17.4626 23.7039 18.1327 23.1768 18.6268C22.6497 19.1208 21.9348 19.3984 21.1893 19.3984H10.8115C10.0935 19.3987 9.40252 19.1413 8.8805 18.6791C8.35848 18.2169 8.04498 17.585 8.00432 16.913L8 16.7638V7.03297C8 6.33424 8.29612 5.66413 8.82322 5.17005C9.35032 4.67598 10.0652 4.39841 10.8107 4.39841H21.1893ZM15.351 10.0729L9.29723 10.0737V16.7638L9.30328 16.8935C9.33779 17.2459 9.51154 17.5734 9.79042 17.8119C10.0693 18.0504 10.4332 18.1825 10.8107 18.1825L15.351 18.1816V10.0729ZM22.7019 14.9367L16.6482 14.9375V18.1816H21.1885C21.5899 18.1816 21.9748 18.0322 22.2586 17.7661C22.5425 17.5001 22.7019 17.1393 22.7019 16.763V14.9367ZM21.1893 5.61436L16.6482 5.61355V13.7223L22.7019 13.7215L22.7028 7.03378L22.6967 6.90408C22.6622 6.55173 22.4885 6.22419 22.2096 5.98573C21.9307 5.74727 21.5668 5.6151 21.1893 5.61517V5.61436ZM15.351 5.61355L10.8107 5.61436L10.687 5.61922C10.3085 5.64852 9.95552 5.81016 9.69823 6.07205C9.44093 6.33395 9.29811 6.67695 9.29809 7.03297L9.29723 8.85852H15.351V5.61274V5.61355Z" fill="#475F7B"/>
</g>
<path d="M32.795 15.0705C33.092 15.0705 33.345 15.0357 33.554 14.966C33.7667 14.8963 33.939 14.801 34.071 14.68C34.2067 14.559 34.3057 14.416 34.368 14.251C34.4303 14.0823 34.4615 13.899 34.4615 13.701C34.4615 13.3087 34.3258 13.0007 34.0545 12.777C33.7832 12.5497 33.3633 12.436 32.795 12.436H31.145V15.0705H32.795ZM31.145 9.0205V11.6055H32.4925C33.0682 11.6055 33.4953 11.49 33.774 11.259C34.0563 11.0243 34.1975 10.709 34.1975 10.313C34.1975 9.862 34.0637 9.53383 33.796 9.3285C33.5283 9.12317 33.1122 9.0205 32.5475 9.0205H31.145ZM32.5475 8.102C33.0425 8.102 33.466 8.14967 33.818 8.245C34.1737 8.34033 34.4652 8.47783 34.6925 8.6575C34.9198 8.83717 35.0867 9.05533 35.193 9.312C35.303 9.565 35.358 9.85283 35.358 10.1755C35.358 10.3662 35.3287 10.5495 35.27 10.7255C35.2113 10.9015 35.1215 11.0665 35.0005 11.2205C34.8795 11.3708 34.7273 11.5065 34.544 11.6275C34.3607 11.7485 34.1443 11.8493 33.895 11.93C35.0427 12.1573 35.6165 12.7568 35.6165 13.7285C35.6165 14.0658 35.5542 14.3738 35.4295 14.6525C35.3048 14.9275 35.1233 15.1658 34.885 15.3675C34.6467 15.5692 34.3533 15.725 34.005 15.835C33.6567 15.945 33.2607 16 32.817 16H29.9735V8.102H32.5475ZM39.3026 10.324C39.7133 10.324 40.0836 10.3918 40.4136 10.5275C40.7473 10.6595 41.0296 10.852 41.2606 11.105C41.4953 11.3543 41.675 11.6568 41.7996 12.0125C41.9243 12.3645 41.9866 12.7605 41.9866 13.2005C41.9866 13.6405 41.9243 14.0383 41.7996 14.394C41.675 14.7497 41.4953 15.0522 41.2606 15.3015C41.0296 15.5508 40.7473 15.7433 40.4136 15.879C40.0836 16.011 39.7133 16.077 39.3026 16.077C38.8883 16.077 38.5143 16.011 38.1806 15.879C37.8506 15.7433 37.5683 15.5508 37.3336 15.3015C37.099 15.0522 36.9175 14.7497 36.7891 14.394C36.6645 14.0383 36.6021 13.6405 36.6021 13.2005C36.6021 12.7605 36.6645 12.3645 36.7891 12.0125C36.9175 11.6568 37.099 11.3543 37.3336 11.105C37.5683 10.852 37.8506 10.6595 38.1806 10.5275C38.5143 10.3918 38.8883 10.324 39.3026 10.324ZM39.3026 15.241C39.8306 15.241 40.2248 15.0632 40.4851 14.7075C40.7455 14.3518 40.8756 13.8513 40.8756 13.206C40.8756 12.5607 40.7455 12.0602 40.4851 11.7045C40.2248 11.3452 39.8306 11.1655 39.3026 11.1655C38.7673 11.1655 38.3676 11.3452 38.1036 11.7045C37.8433 12.0602 37.7131 12.5607 37.7131 13.206C37.7131 13.8513 37.8433 14.3518 38.1036 14.7075C38.3676 15.0632 38.7673 15.241 39.3026 15.241ZM46.2968 13.5195C45.8605 13.5342 45.4901 13.569 45.1858 13.624C44.8815 13.6753 44.634 13.745 44.4433 13.833C44.2526 13.921 44.1151 14.0255 44.0308 14.1465C43.9465 14.2638 43.9043 14.3958 43.9043 14.5425C43.9043 14.6818 43.9263 14.8028 43.9703 14.9055C44.018 15.0045 44.0803 15.087 44.1573 15.153C44.238 15.2153 44.3315 15.2612 44.4378 15.2905C44.5441 15.3198 44.6596 15.3345 44.7843 15.3345C44.9493 15.3345 45.0996 15.318 45.2353 15.285C45.3746 15.252 45.5048 15.2062 45.6258 15.1475C45.7468 15.0852 45.8623 15.01 45.9723 14.922C46.0823 14.834 46.1905 14.7332 46.2968 14.6195V13.5195ZM43.1508 11.193C43.4625 10.896 43.7998 10.6742 44.1628 10.5275C44.5295 10.3808 44.931 10.3075 45.3673 10.3075C45.6863 10.3075 45.9686 10.3607 46.2143 10.467C46.46 10.5697 46.6671 10.7145 46.8358 10.9015C47.0045 11.0885 47.131 11.3122 47.2153 11.5725C47.3033 11.8328 47.3473 12.1207 47.3473 12.436V16H46.8688C46.7625 16 46.6818 15.9835 46.6268 15.9505C46.5718 15.9138 46.5278 15.8478 46.4948 15.7525L46.3793 15.263C46.2363 15.395 46.0951 15.5123 45.9558 15.615C45.8165 15.714 45.6698 15.8002 45.5158 15.8735C45.3655 15.9432 45.2041 15.9963 45.0318 16.033C44.8595 16.0697 44.6688 16.088 44.4598 16.088C44.2398 16.088 44.0326 16.0587 43.8383 16C43.6476 15.9377 43.4808 15.8442 43.3378 15.7195C43.1948 15.5948 43.0811 15.439 42.9968 15.252C42.9161 15.065 42.8758 14.8468 42.8758 14.5975C42.8758 14.3775 42.9345 14.1667 43.0518 13.965C43.1728 13.7597 43.3671 13.5763 43.6348 13.415C43.9061 13.2537 44.2581 13.1217 44.6908 13.019C45.1271 12.9163 45.6625 12.8577 46.2968 12.843V12.436C46.2968 12.0143 46.207 11.699 46.0273 11.49C45.8476 11.281 45.5836 11.1765 45.2353 11.1765C45.0006 11.1765 44.8026 11.2058 44.6413 11.2645C44.4836 11.3232 44.3461 11.3892 44.2288 11.4625C44.1151 11.5322 44.0143 11.5963 43.9263 11.655C43.842 11.7137 43.754 11.743 43.6623 11.743C43.589 11.743 43.5248 11.7228 43.4698 11.6825C43.4185 11.6422 43.3763 11.5945 43.3433 11.5395L43.1508 11.193ZM49.9051 11.4845C50.0847 11.1178 50.3011 10.83 50.5541 10.621C50.8071 10.412 51.1114 10.3075 51.4671 10.3075C51.5881 10.3075 51.7017 10.3222 51.8081 10.3515C51.9181 10.3772 52.0134 10.4175 52.0941 10.4725L52.0226 11.281C51.9969 11.38 51.9364 11.4295 51.8411 11.4295C51.7897 11.4295 51.7127 11.4203 51.6101 11.402C51.5074 11.38 51.3974 11.369 51.2801 11.369C51.1077 11.369 50.9556 11.3947 50.8236 11.446C50.6916 11.4937 50.5724 11.567 50.4661 11.666C50.3634 11.7613 50.2717 11.8805 50.1911 12.0235C50.1104 12.1628 50.0352 12.3223 49.9656 12.502V16H48.8931V10.412H49.5091C49.6264 10.412 49.7052 10.434 49.7456 10.478C49.7896 10.5183 49.8207 10.5917 49.8391 10.698L49.9051 11.4845ZM56.4405 11.765C56.2645 11.534 56.0739 11.3727 55.8685 11.281C55.6669 11.1893 55.4395 11.1435 55.1865 11.1435C54.6952 11.1435 54.3139 11.3213 54.0425 11.677C53.7749 12.029 53.641 12.5442 53.641 13.2225C53.641 13.5782 53.6704 13.8825 53.729 14.1355C53.7914 14.3848 53.8794 14.5902 53.993 14.7515C54.1104 14.9092 54.2534 15.0265 54.422 15.1035C54.5907 15.1768 54.7814 15.2135 54.994 15.2135C55.3057 15.2135 55.5752 15.1438 55.8025 15.0045C56.0299 14.8652 56.2425 14.669 56.4405 14.416V11.765ZM57.5185 7.882V16H56.8695C56.7192 16 56.6257 15.9285 56.589 15.7855L56.4955 15.142C56.2572 15.4243 55.9859 15.6517 55.6815 15.824C55.3809 15.9927 55.0325 16.077 54.6365 16.077C54.3175 16.077 54.0279 16.0147 53.7675 15.89C53.5109 15.7653 53.2909 15.5838 53.1075 15.3455C52.9242 15.1035 52.783 14.8047 52.684 14.449C52.585 14.0933 52.5355 13.6845 52.5355 13.2225C52.5355 12.8082 52.5905 12.4232 52.7005 12.0675C52.8105 11.7118 52.97 11.4038 53.179 11.1435C53.388 10.8832 53.641 10.6797 53.938 10.533C54.235 10.3827 54.5705 10.3075 54.9445 10.3075C55.2819 10.3075 55.5679 10.3625 55.8025 10.4725C56.0409 10.5825 56.2535 10.7383 56.4405 10.94V7.882H57.5185ZM62.4193 11.3745C62.39 11.4222 62.3588 11.457 62.3258 11.479C62.2928 11.4973 62.2506 11.5065 62.1993 11.5065C62.1406 11.5065 62.0746 11.4863 62.0013 11.446C61.9316 11.4057 61.8455 11.3617 61.7428 11.314C61.6438 11.2663 61.5265 11.2223 61.3908 11.182C61.2551 11.1417 61.0938 11.1215 60.9068 11.1215C60.7528 11.1215 60.6116 11.1417 60.4833 11.182C60.3586 11.2187 60.2523 11.2718 60.1643 11.3415C60.0763 11.4075 60.0085 11.4882 59.9608 11.5835C59.9131 11.6752 59.8893 11.7742 59.8893 11.8805C59.8893 12.0198 59.9296 12.1353 60.0103 12.227C60.0946 12.3187 60.2028 12.3975 60.3348 12.4635C60.4705 12.5295 60.6226 12.59 60.7913 12.645C60.9636 12.6963 61.1378 12.7513 61.3138 12.81C61.4935 12.8687 61.6676 12.9365 61.8363 13.0135C62.0086 13.0868 62.1608 13.1803 62.2928 13.294C62.4285 13.404 62.5366 13.5378 62.6173 13.6955C62.7016 13.8532 62.7438 14.0457 62.7438 14.273C62.7438 14.5333 62.6961 14.7753 62.6008 14.999C62.5091 15.219 62.3716 15.4097 62.1883 15.571C62.0086 15.7323 61.785 15.8588 61.5173 15.9505C61.2496 16.0422 60.9435 16.088 60.5988 16.088C60.2138 16.088 59.8581 16.0238 59.5318 15.8955C59.2055 15.7672 58.9323 15.604 58.7123 15.406L58.9653 14.9935C58.9946 14.9422 59.0313 14.9037 59.0753 14.878C59.1193 14.8487 59.178 14.834 59.2513 14.834C59.321 14.834 59.3925 14.8597 59.4658 14.911C59.5391 14.9623 59.6271 15.0192 59.7298 15.0815C59.8325 15.1402 59.9571 15.1952 60.1038 15.2465C60.2505 15.2942 60.4338 15.318 60.6538 15.318C60.8371 15.318 60.9966 15.296 61.1323 15.252C61.268 15.2043 61.3798 15.142 61.4678 15.065C61.5595 14.9843 61.6273 14.8927 61.6713 14.79C61.7153 14.6873 61.7373 14.5792 61.7373 14.4655C61.7373 14.3188 61.6951 14.1978 61.6108 14.1025C61.5301 14.0035 61.422 13.9192 61.2863 13.8495C61.1543 13.7798 61.0021 13.7193 60.8298 13.668C60.6575 13.6167 60.4815 13.5617 60.3018 13.503C60.1221 13.4443 59.9461 13.3765 59.7738 13.2995C59.6015 13.2225 59.4475 13.1253 59.3118 13.008C59.1798 12.8907 59.0716 12.7477 58.9873 12.579C58.9066 12.4103 58.8663 12.205 58.8663 11.963C58.8663 11.7467 58.9103 11.5395 58.9983 11.3415C59.09 11.1435 59.2201 10.9693 59.3888 10.819C59.5611 10.6687 59.772 10.5495 60.0213 10.4615C60.2743 10.3698 60.5621 10.324 60.8848 10.324C61.2551 10.324 61.5888 10.3827 61.8858 10.5C62.1865 10.6173 62.4431 10.7787 62.6558 10.984L62.4193 11.3745Z" fill="#475F7B"/>
<defs>
<clipPath id="clip0_1_407">
<rect width="16" height="16" fill="white" transform="translate(8 4)"/>
</clipPath>
</defs>
</svg>
