<svg width="28" height="28" viewBox="0 0 28 28" fill="none" xmlns="http://www.w3.org/2000/svg">
<g clip-path="url(#clip0_1_326)">
<path d="M16.5176 1.92585C14.0602 0.507052 10.923 1.34738 9.50397 3.8052L0.697038 19.0592C-1.5757 22.9956 2.06629 27.7665 6.47235 26.5857C7.79706 26.2307 8.90424 25.3812 9.58996 24.1935L18.3968 8.93943C19.8124 6.48775 18.9694 3.34139 16.5176 1.92585Z" fill="#F4DC4D"/>
<path d="M10.1029 20.2974C9.36854 17.5567 6.55607 15.9323 3.81464 16.6669C-0.592988 17.848 -1.35829 23.801 2.57637 26.0728C6.50192 28.3392 11.2903 24.729 10.1029 20.2974Z" fill="#A0ED83"/>
<path d="M27.3131 19.0592L18.5062 3.8052C17.8205 2.61749 16.7133 1.76794 15.3886 1.41296C10.9812 0.231767 7.34157 5.00478 9.61329 8.9395L18.4202 24.1935C19.8386 26.6503 22.9756 27.4922 25.4339 26.0729C27.8856 24.6573 28.7287 21.511 27.3131 19.0592Z" fill="#00BEBE"/>
<path d="M10.1029 20.2974C9.36854 17.5567 6.55607 15.9323 3.81464 16.6669C-0.592988 17.848 -1.35829 23.801 2.57637 26.0728C6.50192 28.3392 11.2903 24.729 10.1029 20.2974Z" fill="#A0ED83"/>
</g>
<defs>
<clipPath id="clip0_1_326">
<rect width="28" height="28" fill="white"/>
</clipPath>
</defs>
</svg>
