<svg width="208" height="36" viewBox="0 0 208 36" fill="none" xmlns="http://www.w3.org/2000/svg">
<rect width="208" height="36" rx="4" fill="#B3D6FF"/>
<g clip-path="url(#clip0_1_269)">
<path d="M65.898 14.007L66 14C66.1812 14 66.3563 14.0656 66.4929 14.1848C66.6295 14.3039 66.7184 14.4684 66.743 14.648L66.75 14.75V17.249L69.25 17.25C69.4312 17.25 69.6063 17.3156 69.7429 17.4348C69.8795 17.5539 69.9684 17.7184 69.993 17.898L70 18C70 18.1812 69.9344 18.3563 69.8152 18.4929C69.6961 18.6295 69.5316 18.7184 69.352 18.743L69.25 18.75L66.75 18.749V21.25C66.75 21.4312 66.6844 21.6063 66.5652 21.7429C66.4461 21.8795 66.2816 21.9684 66.102 21.993L66 22C65.8188 22 65.6437 21.9344 65.5071 21.8152C65.3705 21.6961 65.2816 21.5316 65.257 21.352L65.25 21.25V18.749L62.75 18.75C62.5688 18.75 62.3937 18.6844 62.2571 18.5652C62.1205 18.4461 62.0316 18.2816 62.007 18.102L62 18C62 17.8188 62.0656 17.6437 62.1848 17.5071C62.3039 17.3705 62.4684 17.2816 62.648 17.257L62.75 17.25L65.25 17.249V14.75C65.25 14.5688 65.3156 14.3937 65.4348 14.2571C65.5539 14.1205 65.7184 14.0316 65.898 14.007L66 14L65.898 14.007Z" fill="#0079FF"/>
</g>
<path d="M89.0963 13.5685V23H88.0888C87.9371 23 87.8093 22.9762 87.7053 22.9285C87.6013 22.8765 87.4995 22.7898 87.3998 22.6685L82.7003 16.6885C82.7133 16.8402 82.722 16.9897 82.7263 17.137C82.735 17.2843 82.7393 17.4208 82.7393 17.5465V23H81.0168V13.5685H82.0438C82.1261 13.5685 82.1955 13.5728 82.2518 13.5815C82.3125 13.5858 82.3666 13.601 82.4143 13.627C82.462 13.6487 82.5075 13.679 82.5508 13.718C82.5941 13.757 82.6418 13.809 82.6938 13.874L87.4258 19.88C87.4085 19.7153 87.3955 19.5572 87.3868 19.4055C87.3781 19.2495 87.3738 19.1022 87.3738 18.9635V13.5685H89.0963ZM94.8724 18.8595C94.8724 18.6732 94.8464 18.4955 94.7944 18.3265C94.7467 18.1575 94.6687 18.008 94.5604 17.878C94.452 17.748 94.3155 17.6462 94.1509 17.5725C93.9862 17.4945 93.789 17.4555 93.5594 17.4555C93.1304 17.4555 92.7945 17.5768 92.5519 17.8195C92.3092 18.0622 92.151 18.4088 92.0774 18.8595H94.8724ZM92.0514 19.9255C92.1077 20.5538 92.2854 21.0132 92.5844 21.3035C92.8877 21.5938 93.282 21.739 93.7674 21.739C94.0144 21.739 94.2267 21.7108 94.4044 21.6545C94.5864 21.5938 94.7445 21.5288 94.8789 21.4595C95.0175 21.3858 95.141 21.3208 95.2494 21.2645C95.362 21.2038 95.4725 21.1735 95.5809 21.1735C95.7195 21.1735 95.8279 21.2255 95.9059 21.3295L96.4259 21.9795C96.2352 22.2005 96.025 22.3847 95.7954 22.532C95.5657 22.675 95.3274 22.7898 95.0804 22.8765C94.8334 22.9588 94.5842 23.0152 94.3329 23.0455C94.0815 23.0802 93.8389 23.0975 93.6049 23.0975C93.1369 23.0975 92.6992 23.0217 92.2919 22.87C91.8889 22.714 91.5357 22.4865 91.2324 22.1875C90.9334 21.8842 90.6972 21.5093 90.5239 21.063C90.3505 20.6167 90.2639 20.0988 90.2639 19.5095C90.2639 19.0545 90.3375 18.6255 90.4849 18.2225C90.6365 17.8195 90.8532 17.4685 91.1349 17.1695C91.4165 16.8705 91.7589 16.6343 92.1619 16.461C92.5649 16.2833 93.0199 16.1945 93.5269 16.1945C93.9559 16.1945 94.3502 16.2638 94.7099 16.4025C95.0739 16.5368 95.3859 16.734 95.6459 16.994C95.9102 17.254 96.1139 17.5747 96.2569 17.956C96.4042 18.333 96.4779 18.7642 96.4779 19.2495C96.4779 19.3838 96.4714 19.4943 96.4584 19.581C96.4454 19.6677 96.4237 19.737 96.3934 19.789C96.363 19.841 96.3219 19.8778 96.2699 19.8995C96.2179 19.9168 96.1507 19.9255 96.0684 19.9255H92.0514ZM107.194 16.2985L105.088 23H103.639C103.565 23 103.498 22.9762 103.437 22.9285C103.381 22.8808 103.337 22.8007 103.307 22.688L102.215 19.061C102.172 18.9223 102.133 18.7858 102.098 18.6515C102.068 18.5128 102.04 18.3742 102.014 18.2355C101.983 18.3742 101.951 18.515 101.916 18.658C101.886 18.7967 101.849 18.9353 101.806 19.074L100.701 22.688C100.64 22.896 100.51 23 100.311 23H98.9325L96.8265 16.2985H98.2565C98.3865 16.2985 98.4949 16.3288 98.5815 16.3895C98.6725 16.4502 98.7332 16.5282 98.7635 16.6235L99.589 19.9385C99.641 20.1508 99.6865 20.3567 99.7255 20.556C99.7645 20.7553 99.8014 20.9525 99.836 21.1475C99.888 20.9525 99.9422 20.7553 99.9985 20.556C100.059 20.3567 100.122 20.1508 100.187 19.9385L101.169 16.6105C101.199 16.5195 101.257 16.4437 101.344 16.383C101.431 16.3223 101.533 16.292 101.65 16.292H102.443C102.568 16.292 102.674 16.3223 102.761 16.383C102.852 16.4437 102.913 16.5195 102.943 16.6105L103.892 19.9385C103.953 20.1465 104.011 20.3523 104.068 20.556C104.124 20.7553 104.176 20.9568 104.224 21.1605C104.258 20.9612 104.295 20.7618 104.334 20.5625C104.377 20.3588 104.427 20.1508 104.484 19.9385L105.348 16.6235C105.378 16.5282 105.437 16.4502 105.524 16.3895C105.61 16.3288 105.712 16.2985 105.829 16.2985H107.194ZM113.055 15.096V17.7025H116.448V19.2365H113.055V23H111.092V13.5685H117.098V15.096H113.055ZM120.634 16.1945C121.137 16.1945 121.594 16.2747 122.006 16.435C122.417 16.5953 122.77 16.825 123.065 17.124C123.36 17.4187 123.587 17.7783 123.748 18.203C123.908 18.6277 123.988 19.1065 123.988 19.6395C123.988 20.1725 123.908 20.6535 123.748 21.0825C123.587 21.5072 123.36 21.869 123.065 22.168C122.77 22.467 122.417 22.6967 122.006 22.857C121.594 23.0173 121.137 23.0975 120.634 23.0975C120.127 23.0975 119.666 23.0173 119.25 22.857C118.838 22.6967 118.485 22.467 118.19 22.168C117.895 21.869 117.666 21.5072 117.501 21.0825C117.341 20.6535 117.261 20.1725 117.261 19.6395C117.261 19.1065 117.341 18.6277 117.501 18.203C117.666 17.7783 117.895 17.4187 118.19 17.124C118.485 16.825 118.838 16.5953 119.25 16.435C119.666 16.2747 120.127 16.1945 120.634 16.1945ZM120.634 21.752C121.145 21.752 121.525 21.5765 121.772 21.2255C122.019 20.8702 122.142 20.3437 122.142 19.646C122.142 18.9527 122.019 18.4305 121.772 18.0795C121.525 17.7242 121.145 17.5465 120.634 17.5465C120.11 17.5465 119.724 17.7242 119.477 18.0795C119.23 18.4305 119.107 18.9527 119.107 19.646C119.107 20.3437 119.23 20.8702 119.477 21.2255C119.724 21.5765 120.11 21.752 120.634 21.752ZM126.922 13.3085V23H125.128V13.3085H126.922ZM132.556 18.0405C132.387 17.8455 132.203 17.709 132.003 17.631C131.808 17.553 131.6 17.514 131.379 17.514C131.163 17.514 130.965 17.5552 130.788 17.6375C130.61 17.7198 130.456 17.8498 130.326 18.0275C130.201 18.2008 130.103 18.424 130.034 18.697C129.964 18.97 129.93 19.295 129.93 19.672C129.93 20.0447 129.958 20.361 130.014 20.621C130.071 20.881 130.151 21.0912 130.255 21.2515C130.363 21.4118 130.493 21.5288 130.645 21.6025C130.796 21.6718 130.965 21.7065 131.152 21.7065C131.468 21.7065 131.732 21.6437 131.945 21.518C132.161 21.3923 132.365 21.2147 132.556 20.985V18.0405ZM134.35 13.3085V23H133.245C133.015 23 132.868 22.896 132.803 22.688L132.653 22.103C132.519 22.2503 132.376 22.3847 132.224 22.506C132.077 22.6273 131.917 22.7335 131.743 22.8245C131.57 22.9112 131.384 22.9783 131.184 23.026C130.985 23.0737 130.768 23.0975 130.534 23.0975C130.175 23.0975 129.845 23.0217 129.546 22.87C129.247 22.7183 128.987 22.4973 128.766 22.207C128.55 21.9123 128.381 21.5527 128.259 21.128C128.138 20.7033 128.077 20.218 128.077 19.672C128.077 19.1737 128.144 18.71 128.279 18.281C128.417 17.852 128.612 17.4815 128.864 17.1695C129.115 16.8575 129.418 16.6127 129.774 16.435C130.129 16.2573 130.523 16.1685 130.957 16.1685C131.321 16.1685 131.626 16.2227 131.873 16.331C132.125 16.4393 132.352 16.5867 132.556 16.773V13.3085H134.35ZM140.093 18.8595C140.093 18.6732 140.067 18.4955 140.015 18.3265C139.967 18.1575 139.889 18.008 139.781 17.878C139.673 17.748 139.536 17.6462 139.372 17.5725C139.207 17.4945 139.01 17.4555 138.78 17.4555C138.351 17.4555 138.015 17.5768 137.773 17.8195C137.53 18.0622 137.372 18.4088 137.298 18.8595H140.093ZM137.272 19.9255C137.328 20.5538 137.506 21.0132 137.805 21.3035C138.108 21.5938 138.503 21.739 138.988 21.739C139.235 21.739 139.447 21.7108 139.625 21.6545C139.807 21.5938 139.965 21.5288 140.1 21.4595C140.238 21.3858 140.362 21.3208 140.47 21.2645C140.583 21.2038 140.693 21.1735 140.802 21.1735C140.94 21.1735 141.049 21.2255 141.127 21.3295L141.647 21.9795C141.456 22.2005 141.246 22.3847 141.016 22.532C140.786 22.675 140.548 22.7898 140.301 22.8765C140.054 22.9588 139.805 23.0152 139.554 23.0455C139.302 23.0802 139.06 23.0975 138.826 23.0975C138.358 23.0975 137.92 23.0217 137.513 22.87C137.11 22.714 136.756 22.4865 136.453 22.1875C136.154 21.8842 135.918 21.5093 135.745 21.063C135.571 20.6167 135.485 20.0988 135.485 19.5095C135.485 19.0545 135.558 18.6255 135.706 18.2225C135.857 17.8195 136.074 17.4685 136.356 17.1695C136.637 16.8705 136.98 16.6343 137.383 16.461C137.786 16.2833 138.241 16.1945 138.748 16.1945C139.177 16.1945 139.571 16.2638 139.931 16.4025C140.295 16.5368 140.607 16.734 140.867 16.994C141.131 17.254 141.335 17.5747 141.478 17.956C141.625 18.333 141.699 18.7642 141.699 19.2495C141.699 19.3838 141.692 19.4943 141.679 19.581C141.666 19.6677 141.644 19.737 141.614 19.789C141.584 19.841 141.543 19.8778 141.491 19.8995C141.439 19.9168 141.371 19.9255 141.289 19.9255H137.272ZM144.495 17.4035C144.708 17.0222 144.952 16.721 145.23 16.5C145.507 16.279 145.832 16.1685 146.205 16.1685C146.508 16.1685 146.755 16.24 146.946 16.383L146.829 17.709C146.807 17.7957 146.772 17.8563 146.725 17.891C146.681 17.9213 146.621 17.9365 146.543 17.9365C146.473 17.9365 146.374 17.9278 146.244 17.9105C146.114 17.8888 145.992 17.878 145.88 17.878C145.715 17.878 145.568 17.9018 145.438 17.9495C145.312 17.9972 145.199 18.0643 145.1 18.151C145 18.2377 144.909 18.3438 144.827 18.4695C144.749 18.5952 144.675 18.7382 144.606 18.8985V23H142.812V16.2985H143.871C144.053 16.2985 144.179 16.331 144.248 16.396C144.318 16.461 144.367 16.5737 144.398 16.734L144.495 17.4035Z" fill="#0079FF"/>
<defs>
<clipPath id="clip0_1_269">
<rect width="8" height="8" fill="white" transform="translate(62 14)"/>
</clipPath>
</defs>
</svg>
